<?xml version="1.0" encoding="UTF-8"?> <svg xmlns="http://www.w3.org/2000/svg" width="92" height="25" viewBox="0 0 92 25" fill="none"> <path d="M53.342 23.5169C53.0059 23.8741 52.5436 24.0632 51.9764 24.0632C51.4091 24.0632 50.9469 23.8741 50.6107 23.5379C50.2956 23.2018 50.1065 22.7186 50.1065 22.1093V19.5671L50.5057 19.462V22.0883C50.5057 22.6135 50.6528 23.0127 50.9049 23.2858C51.157 23.5589 51.5352 23.706 51.9974 23.706C52.4596 23.706 52.8168 23.5589 53.0689 23.2858C53.321 23.0127 53.4471 22.6135 53.4471 22.1093V19.5671L53.8462 19.462V22.0883C53.8462 22.6765 53.6572 23.1808 53.342 23.5169Z" fill="#007484"></path> <path fill-rule="evenodd" clip-rule="evenodd" d="M31.2607 19.567C31.0086 19.483 30.7145 19.42 30.3993 19.42C30.0842 19.42 29.7901 19.483 29.4959 19.5881C29.2228 19.7141 28.9707 19.8822 28.7606 20.0923C28.5505 20.3234 28.3824 20.5755 28.2563 20.8696C28.1303 21.1638 28.0883 21.4579 28.0883 21.7731C28.0883 21.9622 28.1093 22.1302 28.1513 22.2773C28.1723 22.3613 28.1933 22.4454 28.2143 22.5294C28.2353 22.6135 28.2774 22.6765 28.2984 22.7605C28.4454 23.0757 28.6555 23.3488 28.9287 23.5799C29.1388 23.748 29.3489 23.874 29.601 23.9581C29.8531 24.0421 30.1262 24.0841 30.3993 24.0841C30.5464 24.0841 30.7145 24.0631 30.8405 24.0421C30.9876 24.0211 31.1137 23.9791 31.2607 23.9161C31.5549 23.811 31.807 23.6429 32.0801 23.4328V21.542H30.6304V21.9412H31.6389V23.2017C31.4708 23.3488 31.2817 23.4749 31.0717 23.5589C30.8616 23.6429 30.6304 23.685 30.3993 23.685C29.8741 23.685 29.4329 23.4959 29.0757 23.1177C28.7186 22.7395 28.5295 22.2773 28.5295 21.7521C28.5295 21.2058 28.7186 20.7436 29.0757 20.3864C29.4329 20.0083 29.8741 19.8192 30.3993 19.8192C30.6304 19.8192 30.8826 19.8612 31.0927 19.9452C31.3238 20.0293 31.5339 20.1553 31.723 20.3234L31.9751 20.0083C31.765 19.8192 31.5129 19.6721 31.2607 19.567Z" fill="#007484"></path> <path fill-rule="evenodd" clip-rule="evenodd" d="M36.198 23.9371L36.6393 23.8741V22.0042L38.173 23.9791L38.5511 23.769L37.1645 22.0462C37.5427 22.0042 37.8578 21.8781 38.0679 21.647C38.278 21.4159 38.4041 21.1218 38.4041 20.7436C38.4041 20.3024 38.257 19.9663 37.9839 19.7352C37.7107 19.504 37.2906 19.399 36.7653 19.399H36.177V23.9371H36.198ZM36.6393 21.7521V19.7982H36.8493C37.2275 19.7982 37.5007 19.8822 37.6897 20.0503C37.8788 20.2184 37.9839 20.4495 37.9839 20.7646C37.9839 21.0798 37.8788 21.3109 37.6897 21.479C37.4796 21.647 37.2065 21.7311 36.8493 21.7311H36.6393V21.7521Z" fill="#007484"></path> <path fill-rule="evenodd" clip-rule="evenodd" d="M58.1533 23.9371L58.5945 23.8741V22.0672L59.1407 22.0462C59.5189 22.0042 59.834 21.8781 60.0441 21.647C60.2542 21.4159 60.3803 21.1218 60.3803 20.7436C60.3803 20.3024 60.2332 19.9663 59.9601 19.7352C59.687 19.504 59.2668 19.399 58.7415 19.399H58.1533V23.9371V23.9371ZM58.5945 21.7521V19.7982H58.8046C59.1827 19.7982 59.4559 19.8822 59.6449 20.0503C59.834 20.2184 59.9391 20.4495 59.9391 20.7646C59.9391 21.0798 59.834 21.3109 59.6449 21.479C59.4348 21.647 59.1617 21.7311 58.8046 21.7311H58.5945V21.7521Z" fill="#007484"></path> <path d="M43.3414 23.1597C43.6775 23.5169 44.1397 23.727 44.665 23.727C45.2112 23.727 45.6735 23.5169 45.9886 23.1597C46.3248 22.8026 46.5349 22.2983 46.5349 21.7521C46.5349 21.2058 46.3248 20.7016 45.9886 20.3444C45.6524 19.9873 45.1902 19.7772 44.665 19.7772C44.1187 19.7772 43.6565 19.9873 43.3414 20.3444C43.0052 20.7016 42.7951 21.2058 42.7951 21.7521C42.7951 22.2983 43.0052 22.8026 43.3414 23.1597ZM46.2827 23.4329C45.8836 23.8321 45.3373 24.1052 44.665 24.1052C43.9927 24.1052 43.4464 23.8531 43.0472 23.4329C42.627 22.9917 42.3959 22.4034 42.3959 21.7521C42.3959 21.1218 42.648 20.5125 43.0682 20.0713C43.4674 19.6721 44.0137 19.399 44.686 19.399C45.3583 19.399 45.9046 19.6511 46.3037 20.0713C46.7239 20.5125 46.9551 21.1008 46.9551 21.7521C46.9551 22.4034 46.7029 22.9917 46.2827 23.4329Z" fill="#007484"></path> <path fill-rule="evenodd" clip-rule="evenodd" d="M2.43533 3.03906C3.10765 2.36675 4.0741 2.0306 5.27165 2.0306C5.48175 2.05161 5.62882 2.07261 5.75488 2.07261C7.47768 2.34574 8.36009 2.87099 8.36009 3.66936V7.34607H2.22524V3.56431C2.24625 3.37522 2.28826 3.22815 2.43533 3.03906ZM3.63289 1.00111C1.84706 1.56838 0.964649 2.40877 0.964649 3.52229V14.4894C0.964649 14.8255 1.17475 15.0146 1.57393 15.0987C1.61595 15.0987 1.65797 15.0987 1.69999 15.0777C1.99413 15.0777 2.16221 14.8256 2.22524 14.3633V8.56463H8.36009V14.4894C8.36009 14.8255 8.57019 15.0146 8.96937 15.0987C9.01139 15.0987 9.0324 15.0987 9.0324 15.0777C9.41058 15.0777 9.59967 14.8045 9.59967 14.3003V3.83743C9.59967 3.27017 9.4526 2.76594 9.17947 2.34574C8.23403 1.31627 6.99445 0.791016 5.48175 0.791016H5.1666C4.70439 0.791016 4.20016 0.854045 3.63289 1.00111Z" fill="#007484"></path> <path fill-rule="evenodd" clip-rule="evenodd" d="M14.1378 1.42131C14.1378 1.77848 14.3689 1.98858 14.7891 2.0516H17.8355V14.5104C17.9195 14.8886 18.1086 15.0987 18.3818 15.0987C18.823 15.0357 19.0541 14.8676 19.0541 14.5944V2.07262H22.0795C22.5417 2.0306 22.7728 1.8205 22.7728 1.48434V1.44232C22.7728 1.10617 22.5627 0.91708 22.1635 0.83304H14.7471C14.4319 0.812031 14.2218 1.02213 14.1378 1.42131Z" fill="#007484"></path> <path fill-rule="evenodd" clip-rule="evenodd" d="M28.6345 3.03906C29.3068 2.36675 30.2733 2.0306 31.4708 2.0306C31.6809 2.05161 31.828 2.07261 31.9541 2.07261C33.6769 2.34574 34.5593 2.87099 34.5593 3.66936V7.34607H28.4244V3.56431C28.4244 3.37522 28.4874 3.22815 28.6345 3.03906ZM29.8321 1.00111C28.0462 1.56838 27.1638 2.40877 27.1638 3.52229V14.4894C27.1638 14.8255 27.3739 15.0146 27.7731 15.0987C27.8151 15.0987 27.8572 15.0987 27.8992 15.0777C28.1933 15.0777 28.3614 14.8256 28.4244 14.3633V8.56463H34.5593V14.4894C34.5593 14.8255 34.7694 15.0146 35.1686 15.0987C35.2106 15.0987 35.2316 15.0987 35.2316 15.0777C35.6098 15.0777 35.7989 14.8045 35.7989 14.3003V3.83743C35.7989 3.27017 35.6518 2.76594 35.3787 2.34574C34.4332 1.31627 33.1936 0.791016 31.6809 0.791016H31.3658C30.9036 0.791016 30.3783 0.854045 29.8321 1.00111Z" fill="#007484"></path> <path fill-rule="evenodd" clip-rule="evenodd" d="M42.4169 1.08511C41.0933 1.63136 40.421 2.49275 40.421 3.62728V14.5103C40.421 14.8465 40.6311 15.0356 41.0093 15.0986H41.0723C41.4295 15.0986 41.6396 14.8465 41.6816 14.3633V3.48022C41.6816 3.4382 41.7026 3.33315 41.7446 3.20709C42.1648 2.42973 42.8582 2.03055 43.8456 2.03055C44.1818 2.07256 44.4759 2.11458 44.707 2.19862C45.5684 2.49276 45.9886 3.018 45.9886 3.79536V14.5944C45.9886 14.8675 46.1987 15.0146 46.5769 15.0986H46.6399C46.9551 15.0986 47.1441 14.8885 47.2072 14.5103V3.79536C47.2072 3.62729 47.2282 3.45921 47.2912 3.24911C47.6904 2.45074 48.3837 2.05155 49.3712 2.05155C49.6653 2.05155 49.9805 2.11458 50.3586 2.26165C51.136 2.61881 51.5142 3.03901 51.5142 3.50123V14.3843C51.5562 14.8675 51.7663 15.1196 52.1235 15.1196H52.1655C52.5016 15.1196 52.7117 14.9095 52.7748 14.5103V3.64829C52.7748 3.18608 52.6487 2.72387 52.3966 2.32468C51.6613 1.31621 50.7158 0.832985 49.4552 0.832985H49.2031C48.2577 0.832985 47.3963 1.21116 46.5979 1.96751C45.7995 1.21116 44.9171 0.832985 43.9927 0.832985H43.7406C43.2573 0.811976 42.8161 0.896017 42.4169 1.08511Z" fill="#007484"></path> <path fill-rule="evenodd" clip-rule="evenodd" d="M57.3339 1.33727V12.4304C57.3339 12.8086 57.4809 13.2498 57.7961 13.67C58.7415 14.6365 59.9391 15.0987 61.4098 15.0987H61.7459C62.3342 15.0987 62.9435 14.9936 63.5528 14.7835C65.0865 14.2163 65.8428 13.4179 65.8428 12.4304V1.33727C65.8428 1.08515 65.6537 0.938085 65.3176 0.812027H65.1075C64.8764 0.812027 64.7083 1.00111 64.6033 1.33727V12.1783C64.6033 12.3464 64.5823 12.5145 64.5192 12.7036C63.8889 13.4599 62.9855 13.8381 61.788 13.8381H61.0946C59.3928 13.586 58.5314 13.0397 58.5314 12.1573V1.33727C58.4474 0.980105 58.2583 0.791016 58.0272 0.791016H57.8381C57.586 0.812025 57.4389 1.00111 57.3339 1.33727Z" fill="#007484"></path> <path fill-rule="evenodd" clip-rule="evenodd" d="M74.6249 2.0726C74.9611 2.0726 75.3183 2.11462 75.7174 2.19866C76.999 2.61885 77.6503 3.20713 77.6503 3.90045V6.50566C77.6503 6.92586 77.3982 7.32505 76.915 7.70322C76.5158 7.99736 75.9275 8.20746 75.1922 8.33351C74.751 8.31251 74.3728 8.29149 74.1207 8.29149H71.5365V2.05159H74.6249V2.0726ZM70.2969 1.54735V14.3843C70.3389 14.8465 70.549 15.0987 70.8852 15.0987H70.9272C71.2634 15.0987 71.4735 14.8886 71.5365 14.4894V9.63612H73.9106C74.2888 9.63612 74.772 9.63612 75.3393 9.61511C76.7259 9.84621 77.5033 10.2244 77.6713 10.7496V14.3843C77.7554 14.8255 77.9445 15.0776 78.2386 15.0776C78.6798 15.0146 78.9109 14.8045 78.9109 14.4474V10.7706C78.9109 9.99328 78.4067 9.36299 77.3772 8.90077V8.87976C78.3857 8.24947 78.9109 7.4511 78.9109 6.50566V3.98449C78.9109 3.64833 78.8479 3.33319 78.7008 2.97602C77.9025 1.52635 76.4948 0.812012 74.4569 0.812012H70.9902C70.507 0.812012 70.2969 1.06413 70.2969 1.54735Z" fill="#007484"></path> <path fill-rule="evenodd" clip-rule="evenodd" d="M84.8357 3.03906C85.508 2.36675 86.4744 2.0306 87.672 2.0306C87.8821 2.05161 88.0291 2.07261 88.1552 2.07261C89.878 2.34574 90.7604 2.87099 90.7604 3.66936V7.34607H84.6256V3.56431C84.6256 3.37522 84.6886 3.22815 84.8357 3.03906ZM86.0332 1.00111C84.2474 1.56838 83.365 2.40877 83.365 3.52229V14.4894C83.365 14.8255 83.5751 15.0146 83.9743 15.0987C84.0163 15.0987 84.0583 15.0987 84.1003 15.0777C84.3945 15.0777 84.5625 14.8256 84.6256 14.3633V8.56463H90.7604V14.4894C90.7604 14.8255 90.9705 15.0146 91.3697 15.0987C91.4117 15.0987 91.4327 15.0987 91.4327 15.0777C91.8109 15.0777 92 14.8045 92 14.3003V3.83743C92 3.27017 91.8529 2.76594 91.5798 2.34574C90.6344 1.31627 89.3948 0.791016 87.8821 0.791016H87.5669C87.0837 0.791016 86.5795 0.854045 86.0332 1.00111Z" fill="#007484"></path> </svg> 